<?xml version="1.0" encoding="UTF-8"?>
<svg width="400" height="400" xmlns="http://www.w3.org/2000/svg">
 <title>BADASS</title>

 <g>
  <title>Layer 1</title>
  <g id="layer1">
   <g id="g879" transform="matrix(0.651999,0,0,0.651999,-51.23088,-96.82474) ">
    <g font-size="12px" fill="#000000" stroke="#000000" stroke-opacity="0.991228" id="g670">
     <path fill="#000000" fill-rule="evenodd" stroke="#000000" stroke-width="1pt" stroke-opacity="0.991228" id="path584" d="m382.025269,421.422943c-9.695984,7.373016 -11.852997,9.848999 -17.210999,18.007996c-1.938995,3.149017 -5.559998,10.507996 -6.549988,15.445007c-0.989014,4.936005 -1.730011,12.097992 -1.72699,15.890991c0.011993,12.852997 4.102997,20.916046 8.570984,20.63504c3.992004,-0.458008 9.071991,-4.621033 16.769989,-14.076019"/>
     <path fill="#000000" fill-rule="evenodd" stroke="#000000" stroke-width="1pt" stroke-linejoin="bevel" stroke-opacity="0.991228" id="path585" d="m389.007294,421.631042c9.695984,7.373016 11.852997,9.848999 17.210999,18.007996c1.938995,3.149017 5.559998,10.507996 6.549988,15.445007c0.989014,4.936005 1.730011,12.097992 1.72699,15.890991c-0.011993,12.852966 -4.102997,20.916016 -8.570984,20.63501c-3.992004,-0.458008 -9.071991,-4.621033 -16.769989,-14.075989"/>
     <path fill="#000000" fill-rule="evenodd" stroke="#000000" stroke-width="1pt" stroke-opacity="0.991228" id="path586" d="m299.606995,365.272919c13.460022,-2.359009 26.503021,-3.88501 39.963013,-5.411011c17.622986,-4.440979 26.503998,15.679993 21.646973,30.804993c-6.10498,13.460022 -14.707977,25.255005 -24.559967,36.633026c-7.632019,8.602997 -16.723999,9.994995 -25.394012,7.075989c-6.997986,-1.940002 -13.460999,-6.243011 -20.398987,-16.234009c-3.052002,-8.603973 -5.688019,-13.045013 -9.574005,-23.728973c-3.052002,-9.85202 1.695007,-24.600037 18.316986,-29.140015z"/>
     <path fill="#000000" fill-rule="evenodd" stroke="#000000" stroke-width="1pt" stroke-opacity="0.991228" id="path587" d="m471.689087,365.272919c-13.459991,-2.359009 -26.502991,-3.88501 -39.962982,-5.411011c-17.623016,-4.440979 -26.504028,15.679993 -21.647003,30.804993c6.10498,13.460022 14.707977,25.255005 24.559998,36.633026c7.631989,8.602997 16.723999,9.994995 25.393982,7.075989c6.998016,-1.940002 13.460999,-6.243011 20.398987,-16.234009c3.052002,-8.603973 5.688019,-13.045013 9.574005,-23.728973c3.052002,-9.85202 -1.695007,-24.600037 -18.316986,-29.140015z"/>
    </g>
    <g font-size="12px" stroke="#000000" stroke-opacity="0.991228" id="g775">
     <g fill="none" stroke="#000000" stroke-opacity="0.991228" id="g740">
      <g font-size="12px" fill="none" stroke="#000000" stroke-opacity="0.991228" id="g652">
       <path fill="none" fill-rule="evenodd" stroke="#000000" stroke-width="6.25" stroke-opacity="0.991228" id="path611" d="m299.362274,480.241943c5.690002,13.343994 7.450012,18.415039 11.553009,31.718018c3.496002,12.28894 4.781006,19.793945 6.94101,37.257996"/>
       <path fill="none" fill-rule="evenodd" stroke="#000000" stroke-width="6.25" stroke-opacity="0.991228" id="path612" d="m471.216583,479.506042c-5.690002,13.343994 -7.450012,18.415039 -11.553009,31.718018c-3.496002,12.28894 -4.780975,19.793945 -6.940979,37.257996"/>
       <g fill="none" stroke="#000000" stroke-opacity="0.991228" id="g637">
        <path fill="none" fill-rule="evenodd" stroke="#000000" stroke-width="5" stroke-opacity="0.991228" id="path588" d="m323.646301,511.44397c14.717987,9.026978 40.16098,10.418945 62.955963,10.008972c25.394012,-0.128967 47.133026,-1.962952 61.409027,-10.596985"/>
        <path fill="none" fill-rule="evenodd" stroke="#000000" stroke-width="5" stroke-opacity="0.991228" id="path608" d="m328.797302,534.993958c16.237976,10.203979 35.333984,13.707947 57.325989,12.877991c22.84198,-0.55603 40.350983,-2.478027 56.000977,-13.171997"/>
        <g fill="none" stroke="#000000" stroke-opacity="0.991228" id="g625">
         <path fill="none" fill-rule="evenodd" stroke="#000000" stroke-width="6.25" stroke-opacity="0.991228" id="path609" d="m317.023285,547.355957c17.367004,20.947998 41.608002,24.584961 69.173004,25.315002c29.518982,1.076965 59.165985,-10.64502 66.819,-25.314026"/>
         <g fill="none" stroke="#000000" stroke-opacity="0.991228" id="g615">
          <path fill="none" fill-rule="evenodd" stroke="#000000" stroke-width="5" stroke-opacity="0.991228" id="path589" d="m328.57428,515.967957l-0.415985,41.211975"/>
          <path fill="none" fill-rule="evenodd" stroke="#000000" stroke-width="5" stroke-opacity="0.991228" id="path592" d="m342.103302,520.338989l-0.208008,44.125977"/>
          <path fill="none" fill-rule="evenodd" stroke="#000000" stroke-width="5" stroke-opacity="0.991228" id="path593" d="m357.089294,522.211914l-0.416016,46.208008"/>
          <path fill="none" fill-rule="evenodd" stroke="#000000" stroke-width="5" stroke-opacity="0.991228" id="path594" d="m370.619293,523.25293l-0.209015,46.832031"/>
          <path fill="none" fill-rule="evenodd" stroke="#000000" stroke-width="5" stroke-opacity="0.991228" id="path595" d="m385.813293,523.668945l0,46.832031"/>
          <path fill="none" fill-rule="evenodd" stroke="#000000" stroke-width="5" stroke-opacity="0.991228" id="path598" d="m400.38327,523.460938l0.208008,46.832031"/>
          <path fill="none" fill-rule="evenodd" stroke="#000000" stroke-width="5" stroke-opacity="0.991228" id="path599" d="m413.496033,522.211853l0.415985,46"/>
          <path fill="none" fill-rule="evenodd" stroke="#000000" stroke-width="5" stroke-opacity="0.991228" id="path604" d="m428.690277,519.714966l0.208008,44.125977"/>
          <path fill="none" fill-rule="evenodd" stroke="#000000" stroke-width="5" stroke-opacity="0.991228" id="path606" d="m442.427277,514.302979l0.416992,41.62793"/>
         </g>
        </g>
       </g>
      </g>
      <g font-size="12px" fill="none" stroke="#000000" stroke-opacity="0.991228" id="g675">
       <path fill="none" fill-rule="evenodd" stroke="#000000" stroke-width="12.5" stroke-linecap="round" stroke-linejoin="round" stroke-opacity="0.991228" id="path573" d="m258.628296,397.272949c-19.136017,-18.603027 -32.51001,-50.888 -34.365997,-85.752014c-2.015015,-38.419983 18.217987,-76.569885 48.536987,-98.318848c33.968994,-23.909409 90.765991,-30.522003 126.082001,-28.737503c23.92099,0.016602 77.205994,12.420197 96.014984,26.427689c32.994049,23.98999 50.688019,58.039673 51.914032,96.84967c1.812988,38.983002 -14.606018,68.674988 -34.710999,87.205994"/>
       <path fill="none" fill-rule="evenodd" stroke="#000000" stroke-width="12.5" stroke-linejoin="round" stroke-opacity="0.991228" id="path580" d="m259.792297,287.978943c-7.752014,6.781982 -6.774017,16.97699 -5.378021,32.192017c1.10202,11.559998 8.477997,22.938965 8.865997,33.5c2.712006,22.284973 -3.875977,44.570007 -6.97699,62.78598c-2.131989,20.928009 3.877014,38.950012 11.627991,45.925995c7.751007,6.880005 17.756012,9.729004 28.268005,12.936005c9.550995,2.498016 14.503998,6.84201 21.727997,12.227997c8.606018,9.137024 10.658997,16.694031 10.464996,25.996033"/>
       <path fill="none" fill-rule="evenodd" stroke="#000000" stroke-width="12.5" stroke-linejoin="round" stroke-opacity="0.991228" id="path581" d="m512.191101,287.397552c7.751953,6.781982 6.773987,16.97699 5.377991,32.192017c-1.10199,11.559998 -8.477997,22.938965 -8.865997,33.5c-2.712006,22.284973 3.876007,44.570007 6.976959,62.78598c2.132019,20.928009 -3.876984,38.950012 -11.62796,45.925995c-7.751007,6.880005 -21.937012,10.575012 -28.268005,12.936005c-7.376984,2.580994 -14.919983,7.257996 -21.727997,12.644043c-8.190002,7.888 -10.658997,16.278015 -10.464996,25.580017"/>
       <path fill="none" fill-rule="evenodd" stroke="#000000" stroke-width="12.5" stroke-opacity="0.991228" id="path613" d="m281.951294,472.670959c6.937988,16.789978 14.291992,33.164001 14.985992,50.369995c-3.19101,13.875977 -2.220001,30.25 1.248993,43.294006c4.44101,17.900024 21.786011,39.130005 39.132019,46.20697c17.760986,6.452026 28.861969,8.117981 48.703979,8.117981"/>
       <path fill="none" fill-rule="evenodd" stroke="#000000" stroke-width="12.5" stroke-opacity="0.991228" id="path614" d="m489.053101,472.670929c-6.938019,16.789948 -14.292023,33.163971 -14.986023,50.369965c3.19101,13.875977 2.220001,30.25 -1.248993,43.294006c-4.440979,17.900024 -21.993988,38.505981 -39.339996,45.583008c-17.345001,7.076965 -28.445007,8.741943 -48.287994,8.741943"/>
      </g>
     </g>
     <g stroke="#000000" stroke-opacity="0.991228" id="g770">
      <path fill="none" fill-rule="evenodd" stroke="#000000" stroke-width="12.5" stroke-linejoin="round" stroke-opacity="0.991228" id="path765" d="m478.438293,551.3479l68.271973,31.638062c8.325012,3.468994 14.985046,2.359009 21.230042,0.416016c9.85199,-2.914063 17.622009,-1.248047 25.80896,2.08197c9.852051,4.994995 10.131042,12.07196 3.748047,19.148987c-5.828003,6.799011 -11.657043,10.268005 -18.733032,17.067017c-1.526978,10.962036 -0.555969,21.09198 -5.412964,31.221985c-6.105042,8.880005 -12.627014,7.354004 -22.89502,-2.08197c-10.406982,-8.049011 -6.661011,-16.929016 -21.647034,-29.973022l-63.27597,-32.885986l0,0"/>
      <path fill="none" fill-rule="evenodd" stroke="#000000" stroke-width="12.5" stroke-linejoin="round" stroke-opacity="0.991228" id="path766" d="m291.942291,550.931946c-22.757019,12.07196 -43.432007,23.310974 -69.519012,33.302002c-21.230988,5.27301 -20.397995,-7.769958 -46.207886,0.833008c-7.354401,5.828003 -7.215607,14.153015 -1.24881,20.397034c6.938202,6.799927 11.795013,11.101929 17.900696,17.06897c1.943008,8.603027 2.220001,15.957031 3.330017,26.224976c4.162994,12.628052 13.320984,11.934021 21.22998,5.828979c3.469025,-4.302002 7.770996,-8.187012 10.407013,-12.904968c3.608002,-6.243958 7.631989,-13.320984 12.488983,-19.148987l62.859009,-33.302979"/>
      <path fill="none" fill-rule="evenodd" stroke="#000000" stroke-width="12.5" stroke-linecap="square" stroke-linejoin="round" stroke-opacity="0.991228" id="path767" d="m488.429291,483.076904c25.810028,-12.765961 47.040009,-23.034973 70.35202,-34.551971c14.291992,-11.932983 10.684998,-23.450989 22.063965,-32.053986c11.239014,-10.684998 18.732056,-8.048004 22.89502,-2.080994c4.023987,10.128998 5.967041,20.259003 5.411987,30.804993c10.684021,9.85199 16.374023,15.540985 22.480042,24.562012c0.83197,11.377991 -9.158997,16.094971 -21.231018,16.234009c-15.819031,2.91394 -18.317017,-7.077026 -36.217041,0l-94.496979,44.541992l0,0"/>
      <path fill="none" fill-rule="evenodd" stroke="#000000" stroke-width="12.5" stroke-linejoin="round" stroke-opacity="0.991228" id="path769" d="m284.350281,484.064941c-26.100006,-12.756012 -47.783997,-22.273987 -73.589996,-36.501007c-14.031006,-11.186005 -9.516998,-23.843994 -26.491699,-34.145996c-7.457092,-3.727997 -12.853607,-5.395996 -18.838898,4.709991c-3.826691,9.028015 -3.532303,18.643005 -4.121002,27.965027c-6.672089,7.161987 -14.227295,11.381989 -19.722,20.310974c-7.947693,12.755981 4.120895,16.974976 10.596802,18.545044c18.446304,4.610962 25.118301,-3.729004 42.092804,-0.295044c33.067001,15.405029 66.426987,31.39801 98.315994,47.097046"/>
     </g>
    </g>
   </g>
  </g>
  <text font-weight="bold" xml:space="preserve" text-anchor="middle" font-family="Arial" font-size="42" id="svg_1" y="374" x="196" stroke-width="0" stroke="#000000" fill="#000000">BADASS</text>
 </g>
</svg>